<?xml version="1.0" encoding="utf-8"?>
<!-- Generator: Adobe Illustrator 21.0.2, SVG Export Plug-In . SVG Version: 6.00 Build 0)  -->
<svg version="1.1" id="Calque_1" xmlns="http://www.w3.org/2000/svg" xmlns:xlink="http://www.w3.org/1999/xlink" x="0px" y="0px"
	 viewBox="0 0 85.2 27.8" style="enable-background:new 0 0 85.2 27.8;" xml:space="preserve">
<style type="text/css">
	.st0{fill:#383838;}
	.st1{opacity:0.25;}
</style>
<g>
	<path class="st0" d="M48.9,15.6c0,3.5-2.8,6.3-6.3,6.3s-6.3-2.8-6.3-6.3V0h-6v15.6c0,6.8,5.5,12.3,12.3,12.3s12.3-5.5,12.3-12.3V0
		h-6V15.6z"/>
	<path class="st0" d="M30.3,21.8h-4.9c1.6-2.3,2.5-5,2.5-7.9C27.8,6.2,21.6,0,13.9,0C6.2,0,0,6.2,0,13.9c0,7.7,6.2,13.9,13.9,13.9
		h16.4V21.8z M6,13.9C6,9.6,9.6,6,13.9,6s7.9,3.6,7.9,7.9s-3.6,7.9-7.9,7.9S6,18.3,6,13.9z"/>
	<path class="st0" d="M71.3,21.8c-4.4,0-7.9-3.6-7.9-7.9S66.9,6,71.3,6c2,0,3.9,0.7,5.3,2.1l4-4.4C78.1,1.3,74.8,0,71.3,0
		c-7.7,0-13.9,6.2-13.9,13.9c0,7.7,6.2,13.9,13.9,13.9c3.5,0,6.8-1.3,9.4-3.7l-4-4.4C75.2,21.1,73.3,21.8,71.3,21.8z"/>
</g>
<g class="st1">
	<path class="st0" d="M36.3,12.3c0-3.5,2.8-6.3,6.3-6.3s6.3,2.8,6.3,6.3v15.6h6V12.3C54.9,5.5,49.4,0,42.6,0S30.3,5.5,30.3,12.3
		v15.6h6V12.3z"/>
	<path class="st0" d="M54.8,6h5.1c-1.6,2.3-2.5,5-2.5,7.9c0,7.7,6.2,13.9,13.9,13.9c7.7,0,13.9-6.2,13.9-13.9C85.2,6.2,79,0,71.3,0
		H54.8V6z M79.2,13.9c0,4.4-3.6,7.9-7.9,7.9s-7.9-3.6-7.9-7.9S66.9,6,71.3,6S79.2,9.6,79.2,13.9z"/>
	<path class="st0" d="M13.9,6c4.4,0,7.9,3.6,7.9,7.9s-3.6,7.9-7.9,7.9c-2,0-3.9-0.7-5.3-2.1l-4,4.4c2.6,2.4,5.9,3.7,9.4,3.7
		c7.7,0,13.9-6.2,13.9-13.9C27.8,6.2,21.6,0,13.9,0c-3.5,0-6.8,1.3-9.4,3.7l4,4.4C10,6.7,11.9,6,13.9,6z"/>
</g>
</svg>
