<?xml version="1.0" encoding="UTF-8"?>
<svg id="Calque_1" xmlns="http://www.w3.org/2000/svg" version="1.1" viewBox="0 0 85.2 27.8">
  <!-- Generator: Adobe Illustrator 29.0.1, SVG Export Plug-In . SVG Version: 2.1.0 Build 192)  -->
  <defs>
    <style>
      .st0 {
        fill: #fff;
      }

      .st1 {
        opacity: .2;
      }
    </style>
  </defs>
  <g>
    <path class="st0" d="M48.9,15.6c0,3.5-2.8,6.3-6.3,6.3s-6.3-2.8-6.3-6.3V0h-6v15.6c0,6.8,5.5,12.3,12.3,12.3s12.3-5.5,12.3-12.3V0h-6v15.6Z"/>
    <path class="st0" d="M30.3,21.8h-4.9c1.6-2.3,2.5-5,2.5-7.9C27.8,6.2,21.6,0,13.9,0S0,6.2,0,13.9s6.2,13.9,13.9,13.9h16.4v-6ZM6,13.9c0-4.3,3.6-7.9,7.9-7.9s7.9,3.6,7.9,7.9-3.6,7.9-7.9,7.9-7.9-3.5-7.9-7.9Z"/>
    <path class="st0" d="M71.3,21.8c-4.4,0-7.9-3.6-7.9-7.9s3.5-7.9,7.9-7.9,3.9.7,5.3,2.1l4-4.4C78.1,1.3,74.8,0,71.3,0,63.6,0,57.4,6.2,57.4,13.9s6.2,13.9,13.9,13.9,6.8-1.3,9.4-3.7l-4-4.4c-1.5,1.4-3.4,2.1-5.4,2.1Z"/>
  </g>
  <g class="st1">
    <path class="st0" d="M36.3,12.3c0-3.5,2.8-6.3,6.3-6.3s6.3,2.8,6.3,6.3v15.6h6v-15.6C54.9,5.5,49.4,0,42.6,0s-12.3,5.5-12.3,12.3v15.6h6v-15.6Z"/>
    <path class="st0" d="M54.8,6h5.1c-1.6,2.3-2.5,5-2.5,7.9,0,7.7,6.2,13.9,13.9,13.9s13.9-6.2,13.9-13.9S79,0,71.3,0h-16.5v6ZM79.2,13.9c0,4.4-3.6,7.9-7.9,7.9s-7.9-3.6-7.9-7.9,3.5-7.9,7.9-7.9,7.9,3.6,7.9,7.9Z"/>
    <path class="st0" d="M13.9,6c4.4,0,7.9,3.6,7.9,7.9s-3.6,7.9-7.9,7.9-3.9-.7-5.3-2.1l-4,4.4c2.6,2.4,5.9,3.7,9.4,3.7,7.7,0,13.9-6.2,13.9-13.9C27.8,6.2,21.6,0,13.9,0S7.1,1.3,4.5,3.7l4,4.4c1.5-1.4,3.4-2.1,5.4-2.1Z"/>
  </g>
</svg>